Coordinates
version=1
nRows=9
nColumns=36
inDegrees=yes

Units are S.I. units (second, meters, Newtons, ...)
If the header above contains a line with 'inDegrees', this indicates whether rotational values are in degrees (yes) or radians (no).

endheader
time	pelvis_tilt	pelvis_list	pelvis_rotation	pelvis_tx	pelvis_ty	pelvis_tz	hip_flexion_r	hip_adduction_r	hip_rotation_r	knee_angle_r	knee_angle_r_beta	ankle_angle_r	subtalar_angle_r	mtp_angle_r	hip_flexion_l	hip_adduction_l	hip_rotation_l	knee_angle_l	knee_angle_l_beta	ankle_angle_l	subtalar_angle_l	mtp_angle_l	lumbar_extension	lumbar_bending	lumbar_rotation	arm_flex_r	arm_add_r	arm_rot_r	elbow_flex_r	pro_sup_r	arm_flex_l	arm_add_l	arm_rot_l	elbow_flex_l	pro_sup_l
      5.21666670	      6.22027546	     -1.02581406	     10.64806412	      0.64020331	      1.05526488	     -0.14766039	     34.26357007	     10.57877468	     11.82843939	     34.93276648	      0.60969179	    -15.46353815	    -24.96219688	     -7.49999987	     -4.44594122	      5.34857811	     -8.14771846	      9.22097163	      0.16093632	      2.37041580	      3.85649485	     -7.49999987	     -9.54079352	      7.34132078	    -16.62533344	      5.60481054	     -7.85637565	     12.97240482	     32.09337871	     92.81510677	     25.57822320	    -10.07350715	     11.82000419	     52.75376625	     70.34133235
      5.23333330	      5.84002204	     -1.72918420	     10.12544549	      0.64162934	      1.05398578	     -0.14648737	     32.41118910	      9.82248967	     11.50824272	     36.02714007	      0.62879221	    -15.72919259	    -26.73668215	     -7.49999987	     -4.10298079	      4.80161518	     -8.07536385	      8.80692309	      0.15370980	      2.40030413	      4.56308651	     -7.49999987	     -8.74700749	      7.75872039	    -15.84106970	      5.32336041	     -7.94020283	     13.13205971	     31.97391308	     90.33597107	     24.47868965	    -10.62835682	     11.29210929	     52.62896965	     69.70193369
      5.25000000	      5.24528375	     -2.54680139	      9.56886127	      0.63884323	      1.05158591	     -0.14752082	     31.05111345	      9.02622745	     11.03750578	     37.49523298	      0.65441527	    -17.04354184	    -28.96750686	     -7.49999987	     -3.34739953	      4.03883567	     -7.96667894	      8.74556481	      0.15263890	      2.06116287	      5.73687486	     -7.49999987	     -7.79690135	      8.42029483	    -15.56871507	      5.56660115	     -8.13418864	     13.81529094	     31.71874419	     90.39152665	     23.26072923	    -11.34422949	     10.15185084	     52.73966571	     70.12019605
      5.26666670	      4.90289909	     -3.25327654	      8.88219627	      0.64448858	      1.04699875	     -0.15031939	     29.26056817	      7.98442615	     10.16456607	     39.49923444	      0.68939169	    -17.41636558	    -31.19520206	     -7.49999987	     -2.86471646	      3.42639720	     -7.79015438	      8.64656165	      0.15091097	      1.24064614	      6.30975637	     -7.49999987	     -7.03068160	      9.02745421	    -15.02755356	      5.53402355	     -8.35048551	     14.16622954	     31.43665046	     88.55628740	     22.31182813	    -11.86360613	      9.37079273	     52.56721558	     69.77553675
      5.28333330	      4.44198939	     -3.51844466	      7.96561614	      0.64616523	      1.04762844	     -0.14830569	     27.60306272	      6.65254791	      9.48759354	     41.90992762	      0.73146623	    -16.23481221	    -32.82886905	     -7.49999987	     -1.86396401	      3.17190922	     -7.18543818	      8.86097264	      0.15465315	      2.11076144	      7.20079967	     -7.49999987	     -6.30307354	      9.08771702	    -14.41545977	      5.47692855	     -8.47847731	     14.85594742	     31.18089496	     86.11374298	     21.08420122	    -12.35938613	      8.49147614	     52.70822920	     69.32048568
      5.30000000	      4.06963203	     -3.44134408	      6.77512282	      0.64981413	      1.04308584	     -0.14668295	     26.34029102	      5.09785224	      8.44799264	     45.03542900	      0.78601652	    -13.83267620	    -33.78996811	     -7.49999987	     -1.20606660	      3.21132602	     -6.78899868	      9.50814704	      0.16594847	      2.36996141	      7.91031793	     -7.49999987	     -5.87228114	      8.76929916	    -13.79999386	      5.62736804	     -8.60003767	     16.22950528	     30.74664137	     84.86854116	     19.80953317	    -13.00191004	      7.14039295	     53.31755659	     69.81190924
      5.31666670	      3.75887925	     -3.55203590	      5.66492732	      0.64887867	      1.03957992	     -0.14296854	     25.61289858	      4.01366786	      7.39116938	     47.99090215	      0.83759925	     -9.43371396	    -34.16792022	     -7.49999987	     -0.71167850	      3.12325172	     -6.42415355	     10.16865666	      0.17747654	      3.41294159	      7.61821268	     -7.49999987	     -5.69426604	      8.69265331	    -12.82276825	      5.27316586	     -8.73187757	     16.16557275	     31.19745444	     84.25487160	     19.28653211	    -13.61746292	      6.75951824	     53.53267472	     69.60915528
      5.33333330	      3.34586496	     -3.37522670	      4.48342732	      0.64914460	      1.04025985	     -0.14208092	     24.50143469	      2.34774637	      6.53105587	     50.00667545	      0.87278113	     -5.98545321	    -34.25318959	     -7.49999987	     -0.35843450	      3.40211759	     -6.28081180	      9.92406988	      0.17320769	      4.63890246	      6.98819454	     -7.49999987	     -5.14866771	      8.04558740	    -11.98201850	      5.11142683	     -8.47265321	     15.96845460	     30.58010246	     83.82863348	     18.83498927	    -14.27056438	      6.05571676	     53.73918332	     69.70922936
      5.35000000	      2.86562377	     -3.27698158	      3.36152599	      0.65134577	      1.04066923	     -0.13975662	     23.45775996	      0.79584760	      5.70155999	     51.43735248	      0.89775116	     -4.23820684	    -34.33421845	     -7.49999987	     -0.35381757	      3.55609840	     -6.22986998	      9.34546308	      0.16310910	      5.80204382	      6.50414328	     -7.49999987	     -4.57469765	      7.58981923	    -11.25817793	      4.77259318	     -8.36721140	     15.98351722	     30.45540026	     83.57406245	     18.40756068	    -14.96445557	      5.65235550	     53.77529119	     69.68813868
